<?xml version="1.0" standalone="no"?>
<!DOCTYPE svg PUBLIC "-//W3C//DTD SVG 20010904//EN"
 "http://www.w3.org/TR/2001/REC-SVG-20010904/DTD/svg10.dtd">
<svg version="1.0" xmlns="http://www.w3.org/2000/svg"
 width="150.000000pt" height="150.000000pt" viewBox="0 0 150.000000 150.000000"
 preserveAspectRatio="xMidYMid meet">
<metadata>
Created by potrace 1.14, written by Peter Selinger 2001-2017
</metadata>
<g transform="translate(0.000000,150.000000) scale(0.100000,-0.100000)"
fill="#000000" stroke="none">
<path d="M605 1485 c-141 -30 -316 -120 -324 -167 -1 -4 -8 -26 -16 -49 -9
-23 -17 -51 -19 -63 -3 -12 -14 -52 -26 -91 -12 -38 -23 -79 -26 -91 -2 -12
-11 -40 -19 -64 -8 -23 -15 -44 -15 -45 0 -1 28 -10 63 -20 34 -9 65 -22 68
-28 7 -10 -8 -65 -21 -80 -9 -11 -199 41 -219 58 -11 11 -11 21 2 61 8 27 22
76 32 109 9 33 23 79 30 103 20 60 3 44 -35 -34 -56 -117 -74 -197 -74 -329 0
-94 7 -160 22 -210 55 -175 160 -319 305 -417 61 -41 173 -94 218 -102 13 -3
24 -5 24 -6 0 -6 56 -12 150 -15 114 -4 209 9 282 41 21 9 43 17 48 18 19 4
150 86 184 115 27 24 32 33 23 44 -10 11 -6 34 13 102 27 93 25 104 -18 105
-10 0 -26 4 -35 9 -9 4 -29 11 -44 15 -24 5 -28 2 -38 -30 -7 -19 -13 -41 -14
-47 -2 -7 -8 -31 -15 -54 -10 -37 -15 -43 -39 -43 -16 0 -36 6 -45 13 -17 12
-4 69 94 400 l20 68 32 -6 c55 -12 57 -18 31 -108 -14 -45 -22 -87 -20 -93 5
-13 134 -49 143 -40 4 4 8 12 9 19 1 7 11 45 24 86 l22 73 31 -6 c40 -8 58
-31 47 -59 -4 -12 -18 -56 -30 -97 -12 -41 -29 -101 -39 -132 -10 -32 -14 -55
-9 -52 22 14 94 188 106 258 9 52 8 250 -1 296 -15 74 -61 184 -107 254 -112
172 -273 283 -484 333 -47 11 -235 10 -291 -2z m-71 -112 c-2 -21 -7 -46 -10
-55 -11 -34 6 -17 30 31 l25 49 38 -14 c21 -7 46 -13 56 -14 25 0 22 -11 -19
-64 -35 -46 -35 -48 -15 -53 12 -3 20 -11 18 -17 -4 -12 -24 -10 -64 5 l-25 9
42 47 c37 42 39 48 23 57 -10 5 -21 14 -25 19 -5 9 -39 -44 -60 -96 -5 -11
-16 -17 -25 -15 -15 3 -18 13 -17 53 3 90 4 95 19 95 11 0 13 -9 9 -37z m192
-67 l-6 -41 20 38 c30 56 53 50 39 -11 -11 -51 -3 -53 18 -4 11 26 22 39 29
34 18 -11 -44 -132 -67 -132 -15 0 -18 5 -13 33 l6 32 -19 -26 c-30 -42 -43
-26 -37 44 7 77 11 90 25 81 7 -4 9 -22 5 -48z m-99 -127 c39 -12 103 -81 104
-112 2 -40 -2 -71 -17 -121 -10 -35 -11 -53 -3 -62 16 -19 1 -81 -21 -87 -13
-3 -24 -23 -35 -60 -9 -30 -21 -57 -28 -60 -7 -2 -27 2 -44 10 -37 15 -40 30
-18 92 11 32 12 43 2 46 -32 12 -113 35 -124 35 -7 0 -20 -25 -28 -55 -9 -30
-19 -56 -23 -59 -14 -8 -77 19 -77 34 0 8 8 40 17 70 9 30 26 89 38 130 46
162 58 181 127 205 39 14 73 12 130 -6z m188 -323 c39 -17 40 -19 24 -65 -11
-31 -14 -32 -48 -26 -46 9 -51 12 -51 35 0 25 21 70 32 70 5 0 24 -7 43 -14z
m183 -63 c37 -28 62 -76 62 -120 0 -45 -57 -230 -81 -264 -41 -58 -120 -77
-196 -48 -27 10 -31 54 -10 84 12 15 19 16 43 8 34 -12 74 -1 89 25 5 9 21 58
36 107 19 66 23 96 16 111 -9 22 -46 44 -72 44 -19 0 -23 20 -11 58 10 33 11
34 50 27 22 -3 56 -18 74 -32z m-265 -323 c13 -11 -3 -78 -20 -84 -8 -3 -30 1
-49 9 -33 14 -35 17 -29 47 11 50 21 58 58 46 18 -6 36 -14 40 -18z"/>
<path d="M507 1082 c-20 -22 -49 -119 -38 -126 4 -3 18 -7 32 -10 13 -3 40
-10 59 -15 19 -6 38 -11 41 -11 9 0 34 100 30 120 -9 48 -93 77 -124 42z"/>
</g>
</svg>
