<?xml version="1.0" encoding="UTF-8" standalone="no"?>
<!DOCTYPE svg PUBLIC "-//W3C//DTD SVG 1.1//EN" "http://www.w3.org/Graphics/SVG/1.1/DTD/svg11.dtd">
<svg width="100%" height="100%" viewBox="0 0 512 512" version="1.1" xmlns="http://www.w3.org/2000/svg" xmlns:xlink="http://www.w3.org/1999/xlink" xml:space="preserve" xmlns:serif="http://www.serif.com/" style="fill-rule:evenodd;clip-rule:evenodd;stroke-linejoin:round;stroke-miterlimit:2;">
    <g>
        <path d="M406.427,211.311L310.257,211.311C286.884,211.312 264.975,228.216 264.975,251.589L264.975,512L238.349,512L238.349,253.789C238.349,211.915 269.41,184.684 311.282,184.684C323.057,184.684 409.164,184.597 409.164,184.597L406.427,211.311ZM214.127,183.228C214.129,183.228 214.129,183.227 214.134,183.221C214.615,182.596 220.711,174.58 225.254,171.55C207.039,171.55 101.145,171.215 101.145,171.215L101.186,144.475L414.139,144.475L411.392,171.187C411.392,171.187 329.318,171.101 295.67,171.101C257.628,171.101 221.476,201.643 221.476,239.686C221.476,291.485 221.439,488.684 221.439,488.684L221.357,488.677L221.357,509.724C98.938,492.517 4.536,385.431 4.536,256.069C4.536,114.741 117.213,0 256,0C394.787,0 507.464,114.741 507.464,256.069C507.464,388.527 408.489,497.629 281.806,510.805L281.806,483.853L281.807,483.853L281.807,270.031C281.807,243.858 301.514,224.808 327.686,224.808C339.461,224.808 404.014,224.719 404.014,224.719L401.276,251.434L328.595,251.434C316.826,251.434 308.433,258.411 308.433,270.18L308.433,479.085C407.445,454.998 481.153,364.23 481.153,256.069C481.153,129.528 380.265,26.793 256,26.793C131.735,26.793 30.847,129.528 30.847,256.069C30.847,361.011 100.232,449.58 194.795,476.758L194.667,251.803L101.166,251.479L101.165,224.715C101.165,224.715 173.711,224.772 196.418,224.772C196.753,220.313 198.029,215.201 199.933,209.926L199.929,209.936L101.18,209.936L101.18,183.228L214.127,183.228Z"/>
    </g>
</svg>
