<?xml version="1.0" encoding="UTF-8" standalone="no"?>
<!DOCTYPE svg PUBLIC "-//W3C//DTD SVG 1.1//EN" "http://www.w3.org/Graphics/SVG/1.1/DTD/svg11.dtd">
<svg width="100%" height="100%" viewBox="0 0 1000 1000" version="1.1" xmlns="http://www.w3.org/2000/svg" xmlns:xlink="http://www.w3.org/1999/xlink" xml:space="preserve" xmlns:serif="http://www.serif.com/" style="fill-rule:evenodd;clip-rule:evenodd;stroke-linejoin:round;stroke-miterlimit:2;">
    <g>
        <path d="M773.915,418.178L597.835,418.178C555.04,418.178 514.925,449.129 514.925,491.923L514.925,968.721L466.175,968.721L466.175,495.951C466.175,419.284 523.045,369.425 599.711,369.425C621.27,369.425 778.928,369.266 778.928,369.266L773.915,418.178ZM421.825,366.758C421.825,366.758 435.847,349.614 442.199,345.376C408.847,345.376 214.962,344.763 214.962,344.763L215.038,295.805L788.037,295.805L783.007,344.713C783.007,344.713 632.735,344.555 571.126,344.555C501.473,344.555 435.281,400.476 435.281,470.129C435.281,564.97 435.213,926.03 435.213,926.03L435.064,926.018L435.064,964.554C210.922,933.048 38.076,736.98 38.076,500.127C38.076,241.363 244.382,31.279 498.493,31.279C752.605,31.279 958.91,241.363 958.91,500.127C958.91,742.649 777.692,942.409 545.742,966.532L545.742,917.186L545.744,917.186L545.744,525.689C545.744,477.769 581.826,442.889 629.747,442.889C651.305,442.889 769.499,442.727 769.499,442.727L764.486,491.639L631.411,491.639C609.862,491.639 594.494,504.413 594.494,525.962L594.494,908.455C775.781,864.354 910.736,698.163 910.736,500.127C910.736,268.438 726.016,80.336 498.493,80.336C270.97,80.336 86.251,268.438 86.251,500.127C86.251,692.268 213.291,854.433 386.429,904.195L386.195,492.315L215.001,491.723L214.999,442.719C214.999,442.719 347.827,442.824 389.402,442.824C390.021,434.58 395.83,415.66 395.83,415.66L215.027,415.66L215.027,366.758L421.825,366.758Z" style="fill:white;"/>
    </g>
</svg>
