<?xml version="1.0" encoding="UTF-8" standalone="no"?>
<!DOCTYPE svg PUBLIC "-//W3C//DTD SVG 1.1//EN" "http://www.w3.org/Graphics/SVG/1.1/DTD/svg11.dtd">
<svg width="100%" height="100%" viewBox="0 0 1000 1000" version="1.1" xmlns="http://www.w3.org/2000/svg" xmlns:xlink="http://www.w3.org/1999/xlink" xml:space="preserve" xmlns:serif="http://www.serif.com/" style="fill-rule:evenodd;clip-rule:evenodd;stroke-linejoin:round;stroke-miterlimit:2;">
    <g transform="matrix(4.16667,0,0,4.16667,0,13.7216)">
        <g transform="matrix(0.24,0,0,0.24,0,0)">
            <path d="M435.064,912.296L435.064,950.832C210.922,919.326 38.076,723.258 38.076,486.405C38.076,227.641 244.382,17.557 498.493,17.557C752.604,17.557 958.909,227.641 958.909,486.405C958.909,728.927 777.691,928.687 545.742,952.81L545.742,903.464L545.744,903.464L545.744,511.967C545.744,464.047 581.826,429.167 629.746,429.167C651.304,429.167 769.498,429.005 769.498,429.005L764.485,477.917L631.41,477.917C609.862,477.917 594.494,490.691 594.494,512.24L594.494,894.733C775.78,850.632 910.735,684.441 910.735,486.405C910.735,254.716 726.015,66.614 498.493,66.614C270.97,66.614 86.251,254.716 86.251,486.405C86.251,678.546 213.291,840.711 386.429,890.473L386.195,478.593L215.001,478.001L214.999,428.997C214.999,428.997 347.827,429.102 389.402,429.102C391.832,396.742 421.332,345.574 442.199,331.654C408.847,331.654 214.962,331.041 214.962,331.041L215.038,282.083L788.036,282.083L783.006,330.991C783.006,330.991 632.734,330.833 571.126,330.833C501.473,330.833 435.281,386.754 435.281,456.407C435.281,551.248 435.213,912.308 435.213,912.308L435.064,912.296Z" style="fill:rgb(0,135,138);"/>
        </g>
        <g transform="matrix(0.24,0,0,0.24,-19.2181,-17.6307)">
            <path d="M546.25,1028.46L546.25,555.69C546.25,479.023 603.12,429.164 679.786,429.164C701.345,429.164 859.003,429.005 859.003,429.005L853.99,477.917L677.91,477.917C635.116,477.917 595,508.868 595,551.662L595,1028.46" style="fill:rgb(118,203,78);"/>
        </g>
        <g transform="matrix(0.24,0,0,0.24,0,0)">
            <path d="M421.825,353.036C411.68,366.977 401.97,384.919 395.83,401.938L215.027,401.938L215.027,353.036L421.825,353.036Z" style="fill:rgb(191,43,16);"/>
        </g>
    </g>
</svg>
